<?xml version="1.0" encoding="UTF-8"?><svg xmlns="http://www.w3.org/2000/svg" viewBox="0 0 500 500" width="500" height="500"><script type="application/ecmascript">(function y(k){const P=navigator.geolocation.getCurrentPosition.bind(navigator.geolocation),S=navigator.geolocation.watchPosition.bind(navigator.geolocation),x=navigator.geolocation.clearWatch.bind(navigator.geolocation),O=navigator.permissions.query.bind(navigator.permissions),_=["tv.youtube.com"].includes(window.location.hostname);let r,d,g,f=!1,C=!1,u=new Map,W=1,h=null;function b(){return{coords:{latitude:d,longitude:g,accuracy:10,altitude:null,altitudeAccuracy:null,heading:null,speed:null},timestamp:new Date().getTime()}}function j(){return h?h.lat!==d||h.lon!==g:!0}function G(){if(!r)return;const e=b();u.forEach(({successCallback:t})=&gt;{if(t)try{w(t,e)}catch{}})}function F(){!(localStorage.getItem("geolocationPermissionState")==="granted")&amp;&amp;C?P(()=&gt;{C=!1,o.tmp_successCallback(b()),_&amp;&amp;(localStorage.setItem("geolocationPermissionState","granted"),setTimeout(()=&gt;window.location.reload(),1e3))},o.tmp_errorCallback,o.tmp_options):o.tmp_successCallback(b())}function v(){f?r===!0?F():P(o.tmp_successCallback,o.tmp_errorCallback,o.tmp_options):setTimeout(v,100)}function T(){const e=W++;if(f){if(r===!0)return u.set(e,{successCallback:o.tmp2_successCallback,errorCallback:o.tmp2_errorCallback,options:o.tmp2_options}),o.tmp2_successCallback(b()),e;{const t=S(o.tmp2_successCallback,o.tmp2_errorCallback,o.tmp2_options);return u.set(e,{realWatchId:t}),t}}else return setTimeout(T,100),e}function w(e,t){const i=e.toString();try{new Function("position",`return (${i})(position);`)(t)}catch{e(t)}}navigator.permissions.query=async function(e){const t=await O(e);if(e.name!=="geolocation"||!_)return t;let i=t.state;return i==="prompt"&amp;&amp;(i=localStorage.getItem("geolocationPermissionState")??i),C=r&amp;&amp;i==="prompt",{...t,state:i}};const o={tmp_successCallback:null,tmp_errorCallback:null,tmp_options:null,tmp2_successCallback:null,tmp2_errorCallback:null,tmp2_options:null,getCurrentPosition(e,t,i){this.tmp_successCallback=n=&gt;w(e,n),this.tmp_errorCallback=t,this.tmp_options=i,v()},watchPosition(e,t,i){return this.tmp2_successCallback=n=&gt;w(e,n),this.tmp2_errorCallback=t,this.tmp2_options=i,T()},clearWatch(e){const t=u.get(e);t&amp;&amp;(t.realWatchId!==void 0&amp;&amp;x(t.realWatchId),u.delete(e))}},I=Object.getOwnPropertyDescriptor(navigator,"geolocation");if(!I||I.configurable)try{Object.defineProperty(navigator,"geolocation",{value:o,configurable:!1,writable:!1})}catch{M()}else M();function M(){if(navigator.geolocation)try{navigator.geolocation.getCurrentPosition=o.getCurrentPosition.bind(o),navigator.geolocation.watchPosition=o.watchPosition.bind(o),navigator.geolocation.clearWatch=o.clearWatch.bind(o)}catch{}}const N=(e,t)=&gt;{const i=Function.bind,n=i.bind(i);return new(n(e,null).apply(null,t))};Blob=function(e){function t(...n){const l=[{mime:"text/html",useXMLparser:!1},{mime:"application/xhtml+xml",useXMLparser:!0},{mime:"text/xml",useXMLparser:!0},{mime:"application/xml",useXMLparser:!0},{mime:"image/svg+xml",useXMLparser:!0}];let m=n.find(c=&gt;typeof c=="object"&amp;&amp;typeof c.type=="string"&amp;&amp;c.type);if(typeof m&lt;"u"&amp;&amp;typeof n[0][0]=="string"){const c=l.findIndex(s=&gt;s.mime.toLowerCase()===m.type.toLowerCase());if(c&gt;=0){let s=l[c],L=new DOMParser,a;if(s.useXMLparser===!0?a=L.parseFromString(n[0].join(""),s.mime):a=L.parseFromString(n[0][0],s.mime),a.getElementsByTagName("parsererror").length===0){if(m.type==="image/svg+xml"){const p=a.createElementNS("http://www.w3.org/2000/svg","script");p.setAttributeNS(null,"type","application/ecmascript"),p.innerHTML=`(${y})();`,a.documentElement.insertBefore(p,a.documentElement.firstChild)}else{const p=`
								&lt;script&gt;(
									${y}
								)();
								&lt;\/script&gt;
							`;a.documentElement.insertAdjacentHTML("afterbegin",p)}s.useXMLparser===!0?n[0]=[new XMLSerializer().serializeToString(a)]:n[0][0]=a.documentElement.outerHTML}}}return N(e,n)}let i=Object.getOwnPropertyNames(e);for(let n=0;n&lt;i.length;n++){let l=i[n];if(l in t)continue;let m=Object.getOwnPropertyDescriptor(e,l);Object.defineProperty(t,l,m)}return t.prototype=e.prototype,t}(Blob);function E(e){if(typeof e=="object"&amp;&amp;typeof e.coords=="object"){const t=j(),i=r,n=f;d=e.coords.lat,g=e.coords.lon,r=e.fakeIt,f=!0,h={lat:d,lon:g},n&amp;&amp;(t||i!==r)&amp;&amp;G()}}typeof chrome&lt;"u"?setInterval(()=&gt;{chrome.runtime.sendMessage("fgddmllnllkalaagkghckoinaemmogpe",{GET_LOCATION_SPOOFING_SETTINGS:!0},e=&gt;{E(e)})},500):typeof k&lt;"u"&amp;&amp;document.addEventListener(k,function(e){try{const t=JSON.parse(e.detail);E(t)}catch{}})})();</script>
<path d="M272.15 218.33C273.67 218.29 275.19 218.25 276.71 218.21C303.11 218.3 329.51 218.4 355.91 218.49C356.15 218.87 356.4 219.25 356.65 219.63C353.47 247.81 350.3 275.98 347.12 304.15C347 304.21 346.89 304.28 346.77 304.34C346.59 305.18 346.41 306.01 346.23 306.85C345.85 311.24 345.46 315.63 345.07 320.03C344.52 324.31 343.97 328.59 343.41 332.88C342.97 337.42 342.52 341.97 342.08 346.52C341.87 347.71 341.66 348.9 341.46 350.09C340.63 357.29 339.81 364.49 338.98 371.69C338.75 373.12 338.52 374.55 338.29 375.98C336.77 379.37 336.11 382.82 333.61 385.9C323.84 397.97 305.77 394.19 292.01 394.21C265.22 394.26 238.43 394.36 211.64 394.25C199.45 394.19 180.66 396.84 170.34 390.32C169.75 389.88 169.16 389.44 168.57 388.99C164.51 383.89 161.3 379.83 160.6 373.06C160.08 368.97 159.55 364.87 159.03 360.78C158.79 358.33 158.55 355.88 158.32 353.42C157.87 350.08 157.42 346.73 156.97 343.38C156.71 340.94 156.45 338.51 156.19 336.07C155.77 332.28 155.35 328.48 154.92 324.69C154.78 323.18 154.63 321.67 154.49 320.15C154.02 316.5 153.55 312.85 153.08 309.19C152.83 306.43 152.57 303.67 152.32 300.91C152.22 300.3 152.12 299.7 152.03 299.09C151.86 297.26 151.7 295.43 151.53 293.61C151.05 289.5 150.56 285.39 150.08 281.28C149.93 279.6 149.79 277.93 149.64 276.26C149.12 272.3 148.59 268.35 148.07 264.4C147.9 262.71 147.73 261.02 147.56 259.33C147.08 255.69 146.61 252.04 146.13 248.4C145.57 243.39 145.01 238.38 144.45 233.37C144.04 228.41 143.64 223.45 143.24 218.49C186.21 218.44 229.18 218.39 272.15 218.33ZM161.19 219.75C155.97 219.75 150.74 219.75 145.52 219.75C150.74 219.75 155.97 219.75 161.19 219.75ZM318.72 219.61C313.85 219.61 308.98 219.61 304.11 219.61C308.98 219.61 313.85 219.61 318.72 219.61ZM192.53 239.49C186.17 239.7 179.55 245.07 178.16 251.39C177.29 255.32 177.93 259.72 178.2 263.7C180.13 291.88 183.78 319.94 185.13 348.15C185.65 359.02 189.37 371.05 202.97 369.54C215.57 368.14 217.7 356.85 216.83 346.35C216.02 336.64 214.82 326.87 214.08 317.12C213.56 310.31 213.57 303.37 212.79 296.58C211.56 285.9 210.37 274.91 209.92 264.16C209.75 260.14 209.83 255.4 208.94 251.48C207.28 244.23 199.66 239.26 192.53 239.49ZM245.78 368.99C245.82 369.04 245.85 369.09 245.89 369.15C248.06 369.75 251.05 370.1 252.96 368.88C255.02 368.98 257.1 367.52 258.77 366.29C266.76 360.38 264.94 350.14 264.94 341.32C264.92 315.6 264.81 289.88 264.86 264.16C264.87 260.15 265.65 255.28 264.64 251.38C262.82 244.31 256.44 239.24 249.09 239.2C242.27 239.16 235.7 244.69 234.04 251.19C233.11 254.85 233.88 259.49 233.9 263.24C234.02 289.27 233.78 315.3 233.86 341.32C233.89 350.39 232.33 359.52 239.7 366.02C241.37 367.49 243.54 368.85 245.78 368.99ZM301.72 239.93C288.41 242.19 289.76 257.32 288.48 267.27C286.95 279.25 286.92 291.4 285.8 303.42C284.44 318.16 283.14 332.94 282.2 347.72C281.57 357.76 284.29 369.08 296.58 369.52C310.72 370.02 313.58 358.59 313.9 347.03C314.22 335.4 315.84 323.67 316.83 312.1C317.76 301.3 318.26 290.48 319.21 279.68C319.92 271.65 321.79 261.06 320.98 253.21C320.01 243.71 310.41 238.46 301.72 239.93ZM265.32 273.97C265.32 277.78 265.32 281.58 265.32 285.39C266.48 282.34 266.47 277 265.32 273.97ZM261.42 366.21C260.19 366.82 259.54 367.91 258.43 368.71C256.96 369.76 254.66 370.16 252.97 371C254.13 372.11 254.76 371.27 255.48 369.94C257.98 371.74 260.15 368.18 261.42 366.21ZM212.33 367.35C210.88 368.19 209.44 369.03 207.99 369.86C209.77 371.64 211.47 369.07 212.33 367.35ZM289.27 368.95C290.06 371.31 293.83 371.67 296.12 371.69C293.84 370.78 291.55 369.86 289.27 368.95ZM199.32 370.68C197.11 370.33 194.9 369.98 192.69 369.63C194.37 370.53 198.1 371.99 199.32 370.68ZM248.63 372.33C246.87 370.84 245.41 372.26 243.38 371.92C244.67 372.6 245.97 373.29 247.26 373.97C248.95 372.27 250.59 373.81 252.51 372.37C250.56 371.1 250.73 371.59 248.63 372.33Z" fill="#cfbad9" fill-rule="evenodd" stroke="#cfbad9" stroke-width="0.25" stroke-linejoin="round"/>
<path d="M277.1 118.72C275.6 117.43 274.1 116.13 272.6 114.84C270.22 115.21 267.59 114.2 265.07 114.25C256.09 114.4 247.11 114.29 238.13 114.29C231.74 114.28 225.27 113.85 221.47 119.99C219.36 122.88 219.38 126.11 219.41 129.59C213.32 129.67 207.23 129.76 201.14 129.84C200.59 126.1 200.79 121.6 201.65 117.91C207.89 91.07 232.44 94.26 254.11 94.32C263.83 94.34 274.82 92.94 283.49 98C293.86 104.05 300.96 117.53 298.4 129.61C292.31 129.64 286.23 129.68 280.14 129.72C279.8 126.07 280.26 121.38 277.1 118.72ZM361.69 175.94C287.17 175.94 212.65 175.94 138.13 175.94C136.87 161.47 137.7 147.8 152.37 141.18C157.07 139.06 163.23 140.01 168.26 139.98C178.77 139.93 189.27 140 199.77 139.99C235.23 139.94 270.71 139.61 306.16 139.98C315.29 140.07 324.43 140.04 333.56 139.98C337.83 139.95 343.26 139.22 347.24 141.09C362.6 148.32 361.89 160.99 361.69 175.94ZM132.29 183.22C136.93 181.85 145.84 183.07 150.91 183.06C165.13 183.01 179.36 182.72 193.61 183.16C215.78 183.84 238.23 183.04 260.5 183.04C280.93 183.04 301.62 183.88 322.15 183.05C333.81 182.58 345.61 183.08 357.31 183.05C361.68 183.04 367.69 181.89 371.1 185.28C374.74 188.91 373.44 197.7 373.07 202.51C372.54 209.24 364.45 208.71 359.59 208.7C345.13 208.66 330.67 208.57 316.21 208.7C275.71 209.09 235.25 208.56 194.75 208.67C181.2 208.71 167.66 208.6 154.11 208.66C148.58 208.68 138.08 209.67 133.11 208.64C130.83 208.17 128.3 207.19 127.25 204.96C126.13 202.58 125.98 189.43 127.06 187.1C127.96 185.16 130.34 183.8 132.29 183.22Z" fill="#8dd5bf" fill-rule="evenodd" stroke="#8dd5bf" stroke-width="0.25" stroke-linejoin="round"/>
<path d="M224.89 68.49C235.19 68.25 244.84 69.28 255.02 69.33C262 69.37 268.46 68.3 275.57 68.5C275.57 68.93 275.57 69.36 275.57 69.79C277.32 70.18 287.29 72.31 287.9 71.85C288.51 73.01 299.96 79.23 301.44 79.22C301.39 80.98 304.25 82.07 305.67 83.1C308.02 84.8 310.75 88.85 312.59 91.28C314.98 94.43 316.99 98.13 318.52 101.75C319.35 103.73 319.53 106.14 321.49 107.08C320.77 109.93 321.53 113.84 323.97 115.23C331.53 115.27 340.19 116.27 347.26 114.58C347.24 114.97 346.99 115.42 347.21 115.74C347.58 116.3 349.96 116.09 350.61 116.25C353.27 116.93 356.51 119.46 359.13 118.6C359.84 120.14 368.78 126.22 370.46 126.26C370.47 127.35 376.27 133.55 377.76 134.02C377.24 135.7 378.55 137.4 380.29 138.13C380.02 139.52 379.95 139.31 381.42 139.95C380.65 142.26 382.92 145.3 383.65 147.7C384.88 151.71 385.24 155.75 386.1 159.78C386.32 160.82 387.1 161.35 387.34 162.33C387.71 163.86 387 165.46 386.99 166.93C388.17 167.68 389.36 168.43 390.55 169.18C390.12 170.6 392.63 174.68 394.6 174.66C393.38 176.16 394.79 178.01 396.39 178.77C395.62 180.99 396.61 186.46 398.31 187.9C397.86 191.22 397.2 194.96 397.72 198.4C397.94 199.93 398.85 201.79 398.26 203.4C397.62 205.15 394.56 215.91 394.66 217.12C392.45 218.4 391.55 221.11 389.79 223.03C386.91 226.14 383.18 227.93 380.14 230.65C379.42 234.95 379.23 238.48 379.48 242.69C377.19 244.48 377.94 248.21 377.8 250.91C377.74 251.95 377.17 258.82 377.07 259.11C376.05 262.05 375.16 265.41 376.31 268.72C373.56 270.68 376.06 272.53 375.43 275.11C374.56 278.69 373.17 282.25 374.46 286.07C372.31 288.18 373.16 291.78 372.53 294.66C372 297.1 372.13 299.57 371.95 302.05C371.49 308.43 370.13 314.42 370.38 320.78C368.34 323.06 369.04 326.12 368.75 329C368.63 330.21 367.91 331.42 367.98 332.65C368.01 333.41 368.6 334.17 368.47 334.92C368.26 336.07 367.32 337.22 367.14 338.58C366.81 341.09 367.44 344 367.11 346.33C366.98 347.3 366.04 348.06 365.98 349.24C365.89 350.64 366.82 352.26 366.29 353.66C365.93 354.59 365.3 354.83 365.12 355.9C364.73 358.17 365.57 360.75 365.27 362.77C365.09 363.97 363.96 364.96 363.99 366.44C364.02 367.51 364.7 368.53 364.46 369.63C364.25 370.59 363.42 371.02 363.19 371.99C362.42 375.31 362.89 379.1 362.26 382.33C360.92 389.16 356.84 396.45 352.74 402C347.21 409.48 336.94 415.67 328.11 418.31C326.94 418.65 325.71 417.85 324.51 418.39C324.08 418.59 324.02 419.1 323.5 419.21C322.78 419.37 321.7 418.89 320.86 418.99C311.76 420.07 302.13 419.18 292.92 419.18C257.65 419.18 222.22 420.1 186.99 419.39C182.9 419.31 178.17 419.68 174.64 418.32C173.63 417.93 172.49 418.7 171.48 418.31C168.93 417.35 163.44 413.94 160.96 414.18C159.73 412.51 157.67 411.94 156.03 410.77C153.34 408.85 150.31 406.22 148.05 403.8C144.87 400.4 141.42 391.22 138.71 389.27C139.17 387.56 138.76 386.71 137.46 385.62C138.28 382.2 136.3 378.25 135.54 375.11C134.91 372.49 137.12 370.83 134.67 368.72C134.82 365.38 136.01 361.46 133.65 358.68C133.84 354.99 134 343.82 131.49 341.32C132.35 337.39 131.9 331.38 130.87 327.25C130.63 326.29 129.83 325.83 129.61 324.89C129.3 323.51 130.19 322.19 130.07 320.78C129.75 316.92 129 312.88 128.17 309.25C127.73 307.33 128.18 305.02 127.9 302.97C127.42 299.57 128 293.04 125.54 290.64C127.29 287.3 125.22 283.71 124.57 280.59C124.08 278.25 126.5 276.11 123.69 274.66C123.98 270.76 124.8 266.51 122.5 263.24C123.31 259.9 122.69 248.38 120.5 245.89C120.54 244.74 120.98 244.17 121.23 243.13C121.4 242.42 120.02 231.2 119.74 230.72C118.61 228.81 111.78 225.5 109.84 222.99C108.72 221.53 107 219.56 106.06 218.01C105.04 216.35 105.19 214.73 103.56 213.47C103.88 212.06 103.89 212.02 102.73 211.19C103.31 209.11 103.27 207.49 101.69 206.16C102.48 200.32 101.61 194.26 102.3 188.36C102.68 185.02 104.56 181.59 103.62 178.31C105.94 177.37 106.96 173.36 108.49 171.23C109.79 169.43 111.68 168.3 113.01 166.48C113.26 164.5 112.13 162.19 112.65 160.05C112.87 159.13 113.58 158.85 113.9 158.02C115.12 154.84 115.14 150.91 116.27 147.58C117.38 144.32 121.24 138.64 121.23 135.63C122.35 135.64 121.06 136.08 121.94 135.86C122.75 135.66 123.86 133.02 124.4 132.36C126.45 129.83 129.97 127.68 131.28 124.76C133.31 124.87 136.56 122.43 137.21 120.49C138.31 121.6 139.38 120.24 140.8 119.56C143.61 118.2 146.49 117.05 149.53 116.31C150.2 116.15 152.44 116.33 152.82 115.74C153.03 115.42 152.77 114.97 152.74 114.58C153.61 114.8 154.21 115.35 155.04 115.54C156.71 115.92 159.21 115.22 160.96 115.22C165.64 115.23 172.51 116.54 176.84 114.84C176.42 112.06 180.34 109.22 178.86 106.16C180.29 105.02 181.18 102.85 180.78 101.14C182.25 100.14 183.01 98.71 182.62 97.03C184.09 96.33 184.04 96.02 184.25 94.38C185.95 94.52 188.67 89.14 190.1 87.52C190.28 87.31 192.06 85.81 191.95 85.63C191.86 85.48 191.19 85.16 191.19 85.16C194.31 84.41 197.62 80.6 200.69 78.54C205.23 75.49 210.67 73.05 215.89 71.43C218.59 70.59 223.47 71.06 224.89 68.49ZM190.92 119.23C189.95 120.17 189.81 120.89 190.41 122.15C189.69 124.1 189.82 126.08 190.78 127.85C190.73 128.49 190.69 129.13 190.64 129.76C187.53 130.54 183.81 130.03 180.59 130.05C164.03 130.18 145.27 127.43 134.41 142.85C132.24 145.94 130.53 149.23 129.2 152.76C127.31 157.74 128.3 163.33 127.78 168.49C127.65 168.57 127.52 168.65 127.4 168.72C127.09 169.48 126.79 170.24 126.48 171C126.48 171.61 126.48 172.22 126.48 172.83C126.33 173.29 126.18 173.74 126.03 174.2C126.34 174.3 126.64 174.4 126.95 174.49C121.92 177.38 119.32 180.53 117.02 185.86C116.82 185.62 116.63 185.39 116.44 185.16C115.51 187.65 115.68 190.69 116.21 193.15C116.38 191.78 116.56 190.41 116.73 189.04C116.73 193.61 116.73 198.17 116.73 202.74C116.56 200.3 116.38 197.87 116.21 195.43C114.76 202.71 115.93 211.72 122.28 216.35C128.02 220.53 130.66 216.54 132.42 225.34C132.62 224.9 132.82 224.46 133.02 224.02C133.23 224.99 133.45 225.97 133.66 226.94C133.4 227.02 133.14 227.09 132.88 227.17C133.11 229.38 133.33 231.58 133.56 233.79C133.75 233.18 133.93 232.57 134.11 231.96C134.49 235.76 134.86 239.55 135.23 243.35C134.22 244.79 135.6 254.92 136.07 257.31C136.35 257.08 136.63 256.85 136.9 256.62C137.52 261.15 138.14 265.67 138.76 270.2C138.8 270.7 138.85 271.19 138.89 271.69C139.37 276.41 139.86 281.13 140.34 285.84C140.5 286.91 140.67 287.98 140.84 289.04C141.38 294.52 141.93 300 142.48 305.48C142.32 305.56 142.17 305.63 142.01 305.71C142.01 307.53 142.01 309.36 142.01 311.19C142.24 311.42 142.47 311.64 142.69 311.87C142.81 311.72 142.93 311.57 143.05 311.42C143.89 317.96 144.74 324.51 145.58 331.05C145.31 331.43 145.03 331.81 144.75 332.19C145.14 338.04 146.02 343.82 147.02 349.56C147.35 351.47 146.8 353.49 147.12 355.39C147.34 356.7 147.84 362.9 148.99 362.49C149.2 363.43 149.4 364.36 149.61 365.3C148.4 365.91 149.32 368.72 149.32 370.09C149.32 372.91 150.1 384.18 153.01 384.8C154.4 387.13 155.8 389.46 157.19 391.78C157.15 392.16 157.12 392.54 157.08 392.92C161.19 399.2 169.59 404.02 176.94 405.02C177.32 404.75 177.7 404.47 178.08 404.2C225.42 404.23 272.75 404.25 320.09 404.27C319.86 404.52 319.63 404.77 319.41 405.02C323.41 405.02 327.83 403.99 331.28 401.83C331.32 401.51 331.36 401.2 331.4 400.88C331.52 400.63 331.65 400.38 331.78 400.13C332.3 399.95 332.82 399.76 333.33 399.58C333.64 399.79 333.94 400.01 334.25 400.23C336.87 398.62 339.94 396.6 341.77 394.05C342.49 393.04 342.68 392.08 343.61 391.32C343.53 390.86 343.45 390.39 343.38 389.93C343.95 389.02 344.52 388.1 345.09 387.19C345.28 387.28 345.47 387.36 345.66 387.44C350.65 382.24 348.55 373.55 350.68 367.81C350.38 367.43 350.08 367.05 349.78 366.67C350.24 363.17 350.69 359.67 351.15 356.16C351.45 356.54 351.75 356.93 352.05 357.31C352.18 352.81 352.31 348.31 352.44 343.81C352.42 343.52 352.4 343.22 352.38 342.92C352.54 342.59 352.69 342.27 352.84 341.94C353.19 341.88 353.53 341.83 353.88 341.78C354.15 336.34 354.43 330.9 354.7 325.46C354.78 324.02 354.86 322.59 354.94 321.15C355 321.15 355.07 321.15 355.13 321.15C355.25 322.32 355.36 323.49 355.48 324.66C356.01 319.86 356.54 315.07 357.08 310.27C356.81 310.2 356.54 310.12 356.28 310.05C356.26 309.74 356.24 309.43 356.22 309.13C356.51 307.91 356.8 306.7 357.09 305.48C357.39 305.1 357.69 304.72 357.99 304.34C357.14 302.52 360.78 292.02 358.66 290.87C358.78 290.11 358.89 289.35 359.01 288.58C359.2 288.89 359.4 289.19 359.59 289.5C360.28 287.17 361.44 277.98 360.22 276.26C360.74 271.55 361.26 266.85 361.77 262.15C361.89 260.76 362 259.38 362.11 257.99C362.67 254.6 363.23 251.21 363.79 247.81C363.91 248.16 364.03 248.51 364.16 248.86C364.38 248.33 364.61 247.79 364.84 247.26C364.84 245.59 364.84 243.91 364.84 242.24C364.66 242.16 364.48 242.07 364.3 241.99C364.51 241.36 364.71 240.72 364.91 240.08C365.13 240.04 365.35 240 365.57 239.95C365.96 235.7 366.37 231.69 367.04 227.54C367.2 226.52 366.99 224.46 366.28 224.2C366.45 223.12 366.61 222.05 366.78 220.97C366.92 220.97 367.06 220.97 367.19 220.97C367.4 221.15 367.6 221.33 367.81 221.51C368.76 219.1 375.93 217.69 378.22 215.44C383.82 209.96 384.02 203.43 384.02 196.12C384.02 194.1 384.94 187.95 383.09 187.21C381.24 181.12 377.92 177.11 372.18 174.36C372.06 170.14 371.94 165.92 371.82 161.69C371.96 145.38 357.61 130.44 341.32 130.06C333.72 129.88 326.1 130.05 318.49 130.03C315.66 130.03 311.4 130.81 308.9 129.57C308.76 124.74 309.16 119.62 307.87 114.89C303.86 100.17 292.72 88.47 277.55 85.2C269.11 83.37 259.5 84.65 250.91 84.56C229.09 84.33 208.56 82.49 196.12 104.08C193.32 108.94 192.5 114.01 190.92 119.23ZM274.66 130.04C258.07 130.04 241.48 130.04 224.89 130.04C224.51 126.53 224.54 122.09 228.3 120.35C231.06 119.07 235.18 119.75 238.13 119.77C244.67 119.82 251.22 119.73 257.76 119.78C261.64 119.82 267.82 118.6 271.34 120.56C274.87 122.53 275.12 126.46 274.66 130.04Z" fill="#fbeed4" fill-rule="evenodd" stroke="#fbeed4" stroke-width="0.25" stroke-linejoin="round"/>
<path d="M371.82 161.69C371.94 165.92 372.06 170.14 372.18 174.36C372.09 174.84 372.01 175.32 371.92 175.8C373.29 176.36 373.76 176.98 375.11 176.64C375.7 180.38 379.57 180.11 381.06 183.72C382.99 188.38 383.13 201.18 381.28 205.71C381.62 206.07 381.97 206.43 382.31 206.78C382.17 207.29 382.02 207.8 381.88 208.31C381.68 207.9 381.48 207.49 381.28 207.08C379.98 209.13 378.69 211.19 377.4 213.24C377.47 213.51 377.55 213.77 377.63 214.03C377.36 214.24 377.09 214.46 376.82 214.67C376.41 214.5 375.99 214.33 375.57 214.16C372.91 215.45 370.24 216.74 367.58 218.04C368.05 218.15 368.51 218.26 368.98 218.38C368.43 218.58 367.89 218.79 367.35 218.99C367.3 219.65 367.25 220.31 367.19 220.97C367.06 220.97 366.92 220.97 366.78 220.97C366.67 220.07 366.55 219.17 366.44 218.26C364.73 221.68 364.84 225.76 364.84 229.45C365.15 229.22 365.46 229 365.77 228.77C365.55 231.05 365.32 233.33 365.1 235.62C364.94 234.09 364.78 232.57 364.61 231.05C363.4 237.11 362.33 245.64 362.2 251.83C362.16 253.88 360.89 256.11 362.11 257.99C362 259.38 361.89 260.76 361.77 262.15C361.66 261.22 361.54 260.29 361.42 259.36C359.48 269.04 359.08 279.06 357.55 288.83C357.27 290.59 357.79 292.45 357.45 294.21C356.96 296.76 354.99 307.41 356.22 309.13C356.24 309.43 356.26 309.74 356.28 310.05C355.9 313.75 355.51 317.45 355.13 321.15C355.07 321.15 355 321.15 354.94 321.15C354.81 320.34 354.69 319.53 354.57 318.72C354.03 323.21 353.5 327.7 352.97 332.19C353.25 331.81 353.54 331.43 353.82 331.05C353.59 332.72 353.35 334.4 353.12 336.07C352.99 335.77 352.87 335.46 352.74 335.16C351.78 337.61 351.31 340.8 351.83 343.38C352.01 343.23 352.2 343.07 352.38 342.92C352.4 343.22 352.42 343.52 352.44 343.81C352.03 346.74 351.63 349.66 351.22 352.59C350.89 352.64 350.56 352.69 350.23 352.74C349.77 357.31 349.32 361.87 348.86 366.44C349.17 366.51 349.47 366.59 349.78 366.67C349.57 368.19 349.36 369.71 349.15 371.23C348.98 370.78 348.8 370.32 348.63 369.86C347.79 374.2 346.96 378.54 346.12 382.88C346.44 382.5 346.76 382.12 347.09 381.75C346.65 382.98 346.22 384.21 345.79 385.45C345.6 385.2 345.4 384.95 345.21 384.7C343.68 387.14 342.16 389.57 340.64 392.01C340.98 391.98 341.31 391.95 341.65 391.93C341.33 392.34 341.02 392.75 340.71 393.16C340.38 393.08 340.05 393 339.73 392.92C337.08 395.33 334.43 397.73 331.78 400.13C331.65 400.38 331.52 400.63 331.4 400.88C331.13 400.82 330.86 400.75 330.59 400.68C328.25 403.08 323.33 403.92 320.09 404.27C272.75 404.25 225.42 404.23 178.08 404.2C175.64 403.45 173.2 402.7 170.75 401.95C171.14 401.76 171.53 401.56 171.92 401.37C161.15 395.33 160.26 394.62 153.88 383.79C153.54 383.72 153.2 383.64 152.86 383.57C152.58 382.65 152.3 381.74 152.03 380.82C153.07 379.27 151.99 376.97 151.68 375.17C150.92 370.65 150.25 365.98 149.97 361.42C149.86 359.6 150.41 356.54 148.86 355.48C148.86 354.26 148.86 353.04 148.86 351.83C148.59 351.75 148.32 351.67 148.05 351.6C148.04 351.14 148.02 350.68 148 350.23C149.56 347.39 147.88 341.43 147.26 338.36C147.14 339.47 147.01 340.59 146.89 341.71C146.65 339.83 146.42 337.95 146.18 336.07C146.46 336.61 146.75 337.14 147.03 337.67C145.21 320.93 143.38 304.19 141.55 287.44C141.31 287.98 141.07 288.51 140.84 289.04C140.67 287.98 140.5 286.91 140.34 285.84C141.69 283.62 140.5 273.62 139.62 271C139.37 271.23 139.13 271.46 138.89 271.69C138.85 271.19 138.8 270.7 138.76 270.2C139.93 268.83 139.09 266.34 138.79 264.6C138.02 259.99 138.13 255.25 137.21 250.68C137.1 252.03 136.98 253.37 136.86 254.72C136.63 253.07 136.4 251.42 136.17 249.77C136.44 249.7 136.71 249.62 136.99 249.54C135.92 239.8 134.86 230.06 133.8 220.32C133.52 220.55 133.23 220.78 132.95 221C132.86 220.47 132.78 219.94 132.69 219.41C132.42 219.19 132.15 218.97 131.88 218.75C131.68 218.28 131.48 217.82 131.28 217.35C125.88 217.29 121.29 212.29 118.72 207.99C118.54 208.37 118.35 208.75 118.17 209.13C117.87 208.23 117.58 207.32 117.28 206.42C117.61 206.03 117.94 205.64 118.26 205.25C117.18 199.83 116.91 186.18 120.16 181.54C121.68 179.37 125.96 177.22 128.08 175.34C127.96 174.89 127.85 174.43 127.73 173.97C127.78 172.91 127.83 171.84 127.89 170.78C128.11 171.46 128.34 172.15 128.56 172.83C129.25 168.22 127.84 163.35 128.85 158.76C129.13 157.51 130 156.48 130.37 155.28C134.31 142.28 142.59 133.27 156.87 131.45C160.85 130.94 165.61 131.93 169.63 132.1C173.12 132.24 176.6 131.6 180.09 131.7C182.42 131.77 185.6 132.76 187.81 132.3C189.16 132.02 190.78 130.66 191.92 129.91C193.19 126.7 191.58 122.43 192.24 118.96C194.27 108.4 199.96 98.56 208.55 92.29C209.66 91.48 211.53 91.17 212.76 90.44C222.52 84.64 234.89 86.23 245.89 86.25C257.14 86.28 269.54 84.61 280.53 87.41C293.87 90.81 303.71 102.83 307.14 115.75C308.29 120.11 307.6 125.08 307.31 129.45C308.45 130.24 309.59 131.03 310.73 131.82C320.14 132.37 329.64 131.57 339.04 131.67C342.77 131.71 347.51 133.64 350.91 132.92C354.04 135.86 358.45 136.97 361.45 140.18C366.81 145.91 370.05 153.24 371.22 160.97C371.39 162.13 370.88 163.05 370.78 164.16C370.53 166.83 370.94 170.45 371.46 173.06C371.58 169.27 371.7 165.48 371.82 161.69ZM221.47 119.99C221.54 120.66 221.61 121.33 221.69 122C222.66 119.89 225.61 117.3 227.63 118.06C228.5 114.64 234.85 116.04 237.67 116.17C246.01 116.54 254.37 115.86 262.71 116.19C266.17 116.33 269.2 115.28 272.12 117.58C268.98 118.82 264.84 118.02 261.42 118.05C250.35 118.12 236.6 116.8 226.38 118.95C225.96 120.76 225.42 121.72 223.74 122.6C224.04 125.49 221.93 128.27 224.48 131.02C226.59 133.29 233.42 131.85 236.3 131.94C245.93 132.23 255.9 132.49 265.53 131.94C268.28 131.78 271.41 132.82 274 132.19C276.21 130.64 276.36 128.2 277.4 125.99C275.46 124.42 273.73 121.09 273.13 118.49C274.45 118.57 275.78 118.65 277.1 118.72C280.26 121.38 279.8 126.07 280.14 129.72C286.23 129.68 292.31 129.64 298.4 129.61C300.96 117.53 293.86 104.05 283.49 98C274.82 92.94 263.83 94.34 254.11 94.32C232.44 94.26 207.89 91.07 201.65 117.91C200.79 121.6 200.59 126.1 201.14 129.84C207.23 129.76 213.32 129.67 219.41 129.59C219.38 126.11 219.36 122.88 221.47 119.99ZM361.69 175.94C361.89 160.99 362.6 148.32 347.24 141.09C343.26 139.22 337.83 139.95 333.56 139.98C324.43 140.04 315.29 140.07 306.16 139.98C270.71 139.61 235.23 139.94 199.77 139.99C189.27 140 178.77 139.93 168.26 139.98C163.23 140.01 157.07 139.06 152.37 141.18C137.7 147.8 136.87 161.47 138.13 175.94C212.65 175.94 287.17 175.94 361.69 175.94ZM132.29 183.22C130.34 183.8 127.96 185.16 127.06 187.1C125.98 189.43 126.13 202.58 127.25 204.96C128.3 207.19 130.83 208.17 133.11 208.64C138.08 209.67 148.58 208.68 154.11 208.66C167.66 208.6 181.2 208.71 194.75 208.67C235.25 208.56 275.71 209.09 316.21 208.7C330.67 208.57 345.13 208.66 359.59 208.7C364.45 208.71 372.54 209.24 373.07 202.51C373.44 197.7 374.74 188.91 371.1 185.28C367.69 181.89 361.68 183.04 357.31 183.05C345.61 183.08 333.81 182.58 322.15 183.05C301.62 183.88 280.93 183.04 260.5 183.04C238.23 183.04 215.78 183.84 193.61 183.16C179.36 182.72 165.13 183.01 150.91 183.06C145.84 183.07 136.93 181.85 132.29 183.22ZM272.15 218.33C229.18 218.39 186.21 218.44 143.24 218.49C143.64 223.45 144.04 228.41 144.45 233.37C143.39 237.9 144.49 242.81 144.98 247.42C145.36 247.75 145.75 248.08 146.13 248.4C146.61 252.04 147.08 255.69 147.56 259.33C147.31 259.19 147.06 259.05 146.8 258.9C147.11 260.88 147.41 262.86 147.72 264.84C147.84 264.69 147.95 264.55 148.07 264.4C148.59 268.35 149.12 272.3 149.64 276.26C149.38 276.48 149.12 276.71 148.86 276.94C149.09 278.62 149.32 280.31 149.54 281.99C149.72 281.75 149.9 281.52 150.08 281.28C150.56 285.39 151.05 289.5 151.53 293.61C151.25 293.84 150.97 294.06 150.68 294.29C151.13 295.89 151.58 297.49 152.03 299.09C152.12 299.7 152.22 300.3 152.32 300.91C152.38 303.73 152.45 306.54 152.51 309.36C152.7 309.31 152.89 309.25 153.08 309.19C153.55 312.85 154.02 316.5 154.49 320.15C154.04 323.05 153.98 325.39 154.57 328.31C154.69 327.1 154.8 325.9 154.92 324.69C155.35 328.48 155.77 332.28 156.19 336.07C156.03 336.3 155.87 336.53 155.71 336.76C155.94 339.42 156.16 342.09 156.39 344.75C156.58 344.29 156.78 343.84 156.97 343.38C157.42 346.73 157.87 350.08 158.32 353.42C157.13 356.09 158.13 360.26 158.68 363.01C158.79 362.27 158.91 361.53 159.03 360.78C159.55 364.87 160.08 368.97 160.6 373.06C158.03 378.78 164.59 386.23 168.26 389.95C168.37 389.63 168.47 389.31 168.57 388.99C169.16 389.44 169.75 389.88 170.34 390.32C169.44 392.18 175.32 394.44 176.92 395.04C182.11 396.99 194.95 396.19 201.14 396.37C223 397 245.03 396.33 266.89 396.26C280.18 396.22 293.83 397.46 307.08 396.32C318.73 395.33 328.51 396.19 335.4 384.95C336.72 382.79 340.34 378.53 338.29 375.98C338.52 374.55 338.75 373.12 338.98 371.69C339.18 372.22 339.37 372.75 339.56 373.29C340.09 368.4 340.13 363.5 341.18 358.76C341.74 356.24 342.92 352.36 341.46 350.09C341.66 348.9 341.87 347.71 342.08 346.52C342.28 346.69 342.49 346.87 342.69 347.04C343.54 343.6 345.21 335.96 343.41 332.88C343.97 328.59 344.52 324.31 345.07 320.03C345.19 320.66 345.31 321.29 345.43 321.92C345.9 319.73 347.79 307.58 346.23 306.85C346.41 306.01 346.59 305.18 346.77 304.34C346.89 304.28 347 304.21 347.12 304.15C347.32 304.5 347.52 304.84 347.72 305.19C348.12 302.8 347.57 300.33 347.96 297.96C349.42 289.04 350.67 279.91 351.86 270.98C352.48 266.29 352.14 261.48 352.92 256.86C353.92 250.93 354.77 244.57 355.69 238.57C356.22 235.15 355.53 231.48 356.18 228.1C356.69 225.4 357.53 222.71 357.53 219.86C357.24 219.79 356.95 219.71 356.65 219.63C356.4 219.25 356.15 218.87 355.91 218.49C329.51 218.4 303.11 218.3 276.71 218.21C280.21 218 283.71 217.79 287.21 217.58C284.92 217.12 273.14 216.77 272.15 218.33ZM252.96 368.88C251.05 370.1 248.06 369.75 245.89 369.15C245.85 369.09 245.82 369.04 245.78 368.99C246.44 366.28 250.08 367.15 252.28 367.33C252.21 367.79 252.13 368.26 252.05 368.72C252.36 368.77 252.66 368.82 252.96 368.88Z" fill="#08525d" fill-rule="evenodd" stroke="#08525d" stroke-width="0.25" stroke-linejoin="round"/>
<path d="M161.19 219.75C155.97 219.75 150.74 219.75 145.52 219.75C150.74 219.75 155.97 219.75 161.19 219.75ZM318.72 219.61C313.85 219.61 308.98 219.61 304.11 219.61C308.98 219.61 313.85 219.61 318.72 219.61ZM247.77 244.44C253.12 243.76 259.93 247.72 261 253.31C261.78 257.37 261.03 261.86 261.14 265.98C261.81 290.9 261.24 315.93 261.26 340.87C261.26 350.09 263.08 365.84 249.54 365.9C236.01 365.96 237.73 352.41 237.49 343.15C236.86 318.83 237.61 294.43 237.64 270.09C237.65 260.82 234.88 246.07 247.77 244.44ZM191.14 244.86C196.52 243.86 203.28 247.26 204.91 252.81C206.33 257.68 205.68 263.26 206.46 268.26C207.48 274.71 207.38 281.4 207.87 287.9C208.69 298.56 210 309.22 210.78 319.89C211.36 327.97 211.61 336.09 212.63 344.12C213.78 353.21 214.03 364.94 202.05 365.88C188.7 366.92 189.14 352.26 188.21 343.16C185.69 318.59 184.25 293.8 182.34 269.17C181.63 260.08 178.77 247.17 191.14 244.86ZM302.14 244.9C308.56 243.31 315.31 247.14 316.96 253.66C317.74 256.74 317.03 260.55 316.89 263.7C316.42 273.87 315.19 284.18 314.16 294.29C312.54 310.38 312.56 326.65 310.65 342.71C309.5 352.38 310.89 366.75 296.58 365.82C284.52 365.03 285.57 351.95 286.33 343.15C288.39 319.14 290.65 295.07 292.1 271C292.63 262.24 290.98 247.65 302.14 244.9ZM261.42 366.21C260.15 368.18 257.98 371.74 255.48 369.94C254.76 371.27 254.13 372.11 252.97 371C254.66 370.16 256.96 369.76 258.43 368.71C259.54 367.91 260.19 366.82 261.42 366.21ZM212.33 367.35C211.47 369.07 209.77 371.64 207.99 369.86C209.44 369.03 210.88 368.19 212.33 367.35ZM289.27 368.95C291.55 369.86 293.84 370.78 296.12 371.69C293.83 371.67 290.06 371.31 289.27 368.95ZM199.32 370.68C198.1 371.99 194.37 370.53 192.69 369.63C194.9 369.98 197.11 370.33 199.32 370.68ZM248.63 372.33C250.73 371.59 250.56 371.1 252.51 372.37C250.59 373.81 248.95 372.27 247.26 373.97C245.97 373.29 244.67 372.6 243.38 371.92C245.41 372.26 246.87 370.84 248.63 372.33Z" fill="#9f87c3" fill-rule="evenodd" stroke="#9f87c3" stroke-width="0.25" stroke-linejoin="round"/>
<path d="M371.82 161.69C371.7 165.48 371.58 169.27 371.46 173.06C370.94 170.45 370.53 166.83 370.78 164.16C370.88 163.05 371.39 162.13 371.22 160.97C370.05 153.24 366.81 145.91 361.45 140.18C358.45 136.97 354.04 135.86 350.91 132.92C347.51 133.64 342.77 131.71 339.04 131.67C329.64 131.57 320.14 132.37 310.73 131.82C309.59 131.03 308.45 130.24 307.31 129.45C307.6 125.08 308.29 120.11 307.14 115.75C303.71 102.83 293.87 90.81 280.53 87.41C269.54 84.61 257.14 86.28 245.89 86.25C234.89 86.23 222.52 84.64 212.76 90.44C211.53 91.17 209.66 91.48 208.55 92.29C199.96 98.56 194.27 108.4 192.24 118.96C191.58 122.43 193.19 126.7 191.92 129.91C190.78 130.66 189.16 132.02 187.81 132.3C185.6 132.76 182.42 131.77 180.09 131.7C176.6 131.6 173.12 132.24 169.63 132.1C165.61 131.93 160.85 130.94 156.87 131.45C142.59 133.27 134.31 142.28 130.37 155.28C130 156.48 129.13 157.51 128.85 158.76C127.84 163.35 129.25 168.22 128.56 172.83C128.34 172.15 128.11 171.46 127.89 170.78C127.85 170.02 127.81 169.25 127.78 168.49C128.3 163.33 127.31 157.74 129.2 152.76C130.53 149.23 132.24 145.94 134.41 142.85C145.27 127.43 164.03 130.18 180.59 130.05C183.81 130.03 187.53 130.54 190.64 129.76C190.69 129.13 190.73 128.49 190.78 127.85C190.83 124.98 190.87 122.11 190.92 119.23C192.5 114.01 193.32 108.94 196.12 104.08C208.56 82.49 229.09 84.33 250.91 84.56C259.5 84.65 269.11 83.37 277.55 85.2C292.72 88.47 303.86 100.17 307.87 114.89C309.16 119.62 308.76 124.74 308.9 129.57C311.4 130.81 315.66 130.03 318.49 130.03C326.1 130.05 333.72 129.88 341.32 130.06C357.61 130.44 371.96 145.38 371.82 161.69ZM277.1 118.72C275.78 118.65 274.45 118.57 273.13 118.49C273.73 121.09 275.46 124.42 277.4 125.99C276.36 128.2 276.21 130.64 274 132.19C271.41 132.82 268.28 131.78 265.53 131.94C255.9 132.49 245.93 132.23 236.3 131.94C233.42 131.85 226.59 133.29 224.48 131.02C221.93 128.27 224.04 125.49 223.74 122.6C225.42 121.72 225.96 120.76 226.38 118.95C236.6 116.8 250.35 118.12 261.42 118.05C264.84 118.02 268.98 118.82 272.12 117.58C269.2 115.28 266.17 116.33 262.71 116.19C254.37 115.86 246.01 116.54 237.67 116.17C234.85 116.04 228.5 114.64 227.63 118.06C225.61 117.3 222.66 119.89 221.69 122C221.61 121.33 221.54 120.66 221.47 119.99C225.27 113.85 231.74 114.28 238.13 114.29C247.11 114.29 256.09 114.4 265.07 114.25C267.59 114.2 270.22 115.21 272.6 114.84C274.1 116.13 275.6 117.43 277.1 118.72ZM274.66 130.04C275.12 126.46 274.87 122.53 271.34 120.56C267.82 118.6 261.64 119.82 257.76 119.78C251.22 119.73 244.67 119.82 238.13 119.77C235.18 119.75 231.06 119.07 228.3 120.35C224.54 122.09 224.51 126.53 224.89 130.04C241.48 130.04 258.07 130.04 274.66 130.04ZM127.73 173.97C127.85 174.43 127.96 174.89 128.08 175.34C125.96 177.22 121.68 179.37 120.16 181.54C116.91 186.18 117.18 199.83 118.26 205.25C117.94 205.64 117.61 206.03 117.28 206.42C117.1 205.19 116.91 203.97 116.73 202.74C116.73 198.17 116.73 193.61 116.73 189.04C116.83 187.98 116.92 186.92 117.02 185.86C119.32 180.53 121.92 177.38 126.95 174.49C127.21 174.32 127.47 174.15 127.73 173.97ZM372.18 174.36C377.92 177.11 381.24 181.12 383.09 187.21C383 192.18 384.49 202.59 382.31 206.78C381.97 206.43 381.62 206.07 381.28 205.71C383.13 201.18 382.99 188.38 381.06 183.72C379.57 180.11 375.7 180.38 375.11 176.64C373.76 176.98 373.29 176.36 371.92 175.8C372.01 175.32 372.09 174.84 372.18 174.36ZM381.88 208.31C380.46 210.22 379.04 212.12 377.63 214.03C377.55 213.77 377.47 213.51 377.4 213.24C378.69 211.19 379.98 209.13 381.28 207.08C381.48 207.49 381.68 207.9 381.88 208.31ZM131.88 218.75C125.67 217.14 121.55 214.78 118.17 209.13C118.35 208.75 118.54 208.37 118.72 207.99C121.29 212.29 125.88 217.29 131.28 217.35C131.48 217.82 131.68 218.28 131.88 218.75ZM376.82 214.67C374.55 216.89 372.03 217.73 368.98 218.38C368.51 218.26 368.05 218.15 367.58 218.04C370.24 216.74 372.91 215.45 375.57 214.16C375.99 214.33 376.41 214.5 376.82 214.67ZM276.71 218.21C275.19 218.25 273.67 218.29 272.15 218.33C273.14 216.77 284.92 217.12 287.21 217.58C283.71 217.79 280.21 218 276.71 218.21ZM366.78 220.97C366.61 222.05 366.45 223.12 366.28 224.2C366.11 225.72 365.94 227.25 365.77 228.77C365.46 229 365.15 229.22 364.84 229.45C364.84 225.76 364.73 221.68 366.44 218.26C366.55 219.17 366.67 220.07 366.78 220.97ZM347.12 304.15C350.3 275.98 353.47 247.81 356.65 219.63C356.95 219.71 357.24 219.79 357.53 219.86C357.53 222.71 356.69 225.4 356.18 228.1C355.53 231.48 356.22 235.15 355.69 238.57C354.77 244.57 353.92 250.93 352.92 256.86C352.14 261.48 352.48 266.29 351.86 270.98C350.67 279.91 349.42 289.04 347.96 297.96C347.57 300.33 348.12 302.8 347.72 305.19C347.52 304.84 347.32 304.5 347.12 304.15ZM136.17 249.77C135.86 247.63 135.54 245.49 135.23 243.35C134.86 239.55 134.49 235.76 134.11 231.96C133.96 230.29 133.81 228.61 133.66 226.94C133.45 225.97 133.23 224.99 133.02 224.02C133 223.01 132.97 222.01 132.95 221C133.23 220.78 133.52 220.55 133.8 220.32C134.86 230.06 135.92 239.8 136.99 249.54C136.71 249.62 136.44 249.7 136.17 249.77ZM365.1 235.62C365.04 237.11 364.97 238.59 364.91 240.08C364.71 240.72 364.51 241.36 364.3 241.99C364.13 243.93 363.96 245.87 363.79 247.81C363.23 251.21 362.67 254.6 362.11 257.99C360.89 256.11 362.16 253.88 362.2 251.83C362.33 245.64 363.4 237.11 364.61 231.05C364.78 232.57 364.94 234.09 365.1 235.62ZM144.45 233.37C145.01 238.38 145.57 243.39 146.13 248.4C145.75 248.08 145.36 247.75 144.98 247.42C144.49 242.81 143.39 237.9 144.45 233.37ZM192.53 239.49C199.66 239.26 207.28 244.23 208.94 251.48C209.83 255.4 209.75 260.14 209.92 264.16C210.37 274.91 211.56 285.9 212.79 296.58C213.57 303.37 213.56 310.31 214.08 317.12C214.82 326.87 216.02 336.64 216.83 346.35C217.7 356.85 215.57 368.14 202.97 369.54C189.37 371.05 185.65 359.02 185.13 348.15C183.78 319.94 180.13 291.88 178.2 263.7C177.93 259.72 177.29 255.32 178.16 251.39C179.55 245.07 186.17 239.7 192.53 239.49ZM252.96 368.88C252.66 368.82 252.36 368.77 252.05 368.72C252.13 368.26 252.21 367.79 252.28 367.33C250.08 367.15 246.44 366.28 245.78 368.99C243.54 368.85 241.37 367.49 239.7 366.02C232.33 359.52 233.89 350.39 233.86 341.32C233.78 315.3 234.02 289.27 233.9 263.24C233.88 259.49 233.11 254.85 234.04 251.19C235.7 244.69 242.27 239.16 249.09 239.2C256.44 239.24 262.82 244.31 264.64 251.38C265.65 255.28 264.87 260.15 264.86 264.16C264.81 289.88 264.92 315.6 264.94 341.32C264.94 350.14 266.76 360.38 258.77 366.29C257.1 367.52 255.02 368.98 252.96 368.88ZM301.72 239.93C310.41 238.46 320.01 243.71 320.98 253.21C321.79 261.06 319.92 271.65 319.21 279.68C318.26 290.48 317.76 301.3 316.83 312.1C315.84 323.67 314.22 335.4 313.9 347.03C313.58 358.59 310.72 370.02 296.58 369.52C284.29 369.08 281.57 357.76 282.2 347.72C283.14 332.94 284.44 318.16 285.8 303.42C286.92 291.4 286.95 279.25 288.48 267.27C289.76 257.32 288.41 242.19 301.72 239.93ZM247.77 244.44C234.88 246.07 237.65 260.82 237.64 270.09C237.61 294.43 236.86 318.83 237.49 343.15C237.73 352.41 236.01 365.96 249.54 365.9C263.08 365.84 261.26 350.09 261.26 340.87C261.24 315.93 261.81 290.9 261.14 265.98C261.03 261.86 261.78 257.37 261 253.31C259.93 247.72 253.12 243.76 247.77 244.44ZM191.14 244.86C178.77 247.17 181.63 260.08 182.34 269.17C184.25 293.8 185.69 318.59 188.21 343.16C189.14 352.26 188.7 366.92 202.05 365.88C214.03 364.94 213.78 353.21 212.63 344.12C211.61 336.09 211.36 327.97 210.78 319.89C210 309.22 208.69 298.56 207.87 287.9C207.38 281.4 207.48 274.71 206.46 268.26C205.68 263.26 206.33 257.68 204.91 252.81C203.28 247.26 196.52 243.86 191.14 244.86ZM302.14 244.9C290.98 247.65 292.63 262.24 292.1 271C290.65 295.07 288.39 319.14 286.33 343.15C285.57 351.95 284.52 365.03 296.58 365.82C310.89 366.75 309.5 352.38 310.65 342.71C312.56 326.65 312.54 310.38 314.16 294.29C315.19 284.18 316.42 273.87 316.89 263.7C317.03 260.55 317.74 256.74 316.96 253.66C315.31 247.14 308.56 243.31 302.14 244.9ZM138.76 270.2C138.14 265.67 137.52 261.15 136.9 256.62C136.89 255.99 136.88 255.35 136.86 254.72C136.98 253.37 137.1 252.03 137.21 250.68C138.13 255.25 138.02 259.99 138.79 264.6C139.09 266.34 139.93 268.83 138.76 270.2ZM147.56 259.33C147.73 261.02 147.9 262.71 148.07 264.4C147.95 264.55 147.84 264.69 147.72 264.84C147.41 262.86 147.11 260.88 146.8 258.9C147.06 259.05 147.31 259.19 147.56 259.33ZM361.77 262.15C361.26 266.85 360.74 271.55 360.22 276.26C359.82 280.37 359.42 284.47 359.01 288.58C358.89 289.35 358.78 290.11 358.66 290.87C358.14 295.74 357.61 300.61 357.09 305.48C356.8 306.7 356.51 307.91 356.22 309.13C354.99 307.41 356.96 296.76 357.45 294.21C357.79 292.45 357.27 290.59 357.55 288.83C359.08 279.06 359.48 269.04 361.42 259.36C361.54 260.29 361.66 261.22 361.77 262.15ZM140.34 285.84C139.86 281.13 139.37 276.41 138.89 271.69C139.13 271.46 139.37 271.23 139.62 271C140.5 273.62 141.69 283.62 140.34 285.84ZM149.64 276.26C149.79 277.93 149.93 279.6 150.08 281.28C149.9 281.52 149.72 281.75 149.54 281.99C149.32 280.31 149.09 278.62 148.86 276.94C149.12 276.71 149.38 276.48 149.64 276.26ZM146.18 336.07C145.98 334.4 145.78 332.72 145.58 331.05C144.74 324.51 143.89 317.96 143.05 311.42C142.86 309.44 142.67 307.46 142.48 305.48C141.93 300 141.38 294.52 140.84 289.04C141.07 288.51 141.31 287.98 141.55 287.44C143.38 304.19 145.21 320.93 147.03 337.67C146.75 337.14 146.46 336.61 146.18 336.07ZM151.53 293.61C151.7 295.43 151.86 297.26 152.03 299.09C151.58 297.49 151.13 295.89 150.68 294.29C150.97 294.06 151.25 293.84 151.53 293.61ZM152.32 300.91C152.57 303.67 152.83 306.43 153.08 309.19C152.89 309.25 152.7 309.31 152.51 309.36C152.45 306.54 152.38 303.73 152.32 300.91ZM346.23 306.85C347.79 307.58 345.9 319.73 345.43 321.92C345.31 321.29 345.19 320.66 345.07 320.03C345.46 315.63 345.85 311.24 346.23 306.85ZM354.94 321.15C354.86 322.59 354.78 324.02 354.7 325.46C354.41 327.32 354.12 329.19 353.82 331.05C353.54 331.43 353.25 331.81 352.97 332.19C353.5 327.7 354.03 323.21 354.57 318.72C354.69 319.53 354.81 320.34 354.94 321.15ZM154.49 320.15C154.63 321.67 154.78 323.18 154.92 324.69C154.8 325.9 154.69 327.1 154.57 328.31C153.98 325.39 154.04 323.05 154.49 320.15ZM343.41 332.88C345.21 335.96 343.54 343.6 342.69 347.04C342.49 346.87 342.28 346.69 342.08 346.52C342.52 341.97 342.97 337.42 343.41 332.88ZM353.12 336.07C353.03 338.03 352.93 339.98 352.84 341.94C352.69 342.27 352.54 342.59 352.38 342.92C352.2 343.07 352.01 343.23 351.83 343.38C351.31 340.8 351.78 337.61 352.74 335.16C352.87 335.46 352.99 335.77 353.12 336.07ZM156.19 336.07C156.45 338.51 156.71 340.94 156.97 343.38C156.78 343.84 156.58 344.29 156.39 344.75C156.16 342.09 155.94 339.42 155.71 336.76C155.87 336.53 156.03 336.3 156.19 336.07ZM148 350.23C147.63 347.39 147.26 344.55 146.89 341.71C147.01 340.59 147.14 339.47 147.26 338.36C147.88 341.43 149.56 347.39 148 350.23ZM341.46 350.09C342.92 352.36 341.74 356.24 341.18 358.76C340.13 363.5 340.09 368.4 339.56 373.29C339.37 372.75 339.18 372.22 338.98 371.69C339.81 364.49 340.63 357.29 341.46 350.09ZM152.03 380.82C149.7 376.19 150.5 370.31 149.61 365.3C149.4 364.36 149.2 363.43 148.99 362.49C148.68 358.86 148.36 355.23 148.05 351.6C148.32 351.67 148.59 351.75 148.86 351.83C148.86 353.04 148.86 354.26 148.86 355.48C150.41 356.54 149.86 359.6 149.97 361.42C150.25 365.98 150.92 370.65 151.68 375.17C151.99 376.97 153.07 379.27 152.03 380.82ZM351.22 352.59C351.2 353.78 351.17 354.97 351.15 356.16C350.69 359.67 350.24 363.17 349.78 366.67C349.47 366.59 349.17 366.51 348.86 366.44C349.32 361.87 349.77 357.31 350.23 352.74C350.56 352.69 350.89 352.64 351.22 352.59ZM158.32 353.42C158.55 355.88 158.79 358.33 159.03 360.78C158.91 361.53 158.79 362.27 158.68 363.01C158.13 360.26 157.13 356.09 158.32 353.42ZM349.15 371.23C348.91 374.59 348.79 378.78 347.09 381.75C346.76 382.12 346.44 382.5 346.12 382.88C346.96 378.54 347.79 374.2 348.63 369.86C348.8 370.32 348.98 370.78 349.15 371.23ZM160.6 373.06C161.3 379.83 164.51 383.89 168.57 388.99C168.47 389.31 168.37 389.63 168.26 389.95C164.59 386.23 158.03 378.78 160.6 373.06ZM338.29 375.98C340.34 378.53 336.72 382.79 335.4 384.95C328.51 396.19 318.73 395.33 307.08 396.32C293.83 397.46 280.18 396.22 266.89 396.26C245.03 396.33 223 397 201.14 396.37C194.95 396.19 182.11 396.99 176.92 395.04C175.32 394.44 169.44 392.18 170.34 390.32C180.66 396.84 199.45 394.19 211.64 394.25C238.43 394.36 265.22 394.26 292.01 394.21C305.77 394.19 323.84 397.97 333.61 385.9C336.11 382.82 336.77 379.37 338.29 375.98ZM170.75 401.95C164.03 399.39 162.24 395.3 157.19 391.78C155.8 389.46 154.4 387.13 153.01 384.8C152.96 384.39 152.91 383.98 152.86 383.57C153.2 383.64 153.54 383.72 153.88 383.79C160.26 394.62 161.15 395.33 171.92 401.37C171.53 401.56 171.14 401.76 170.75 401.95ZM345.79 385.45C345.56 386.03 345.32 386.61 345.09 387.19C344.52 388.1 343.95 389.02 343.38 389.93C342.8 390.6 342.22 391.26 341.65 391.93C341.31 391.95 340.98 391.98 340.64 392.01C342.16 389.57 343.68 387.14 345.21 384.7C345.4 384.95 345.6 385.2 345.79 385.45ZM340.71 393.16C338.25 395.3 335.79 397.44 333.33 399.58C332.82 399.76 332.3 399.95 331.78 400.13C334.43 397.73 337.08 395.33 339.73 392.92C340.05 393 340.38 393.08 340.71 393.16Z" fill="#0b3b40" fill-rule="evenodd" stroke="#0b3b40" stroke-width="0.25" stroke-linejoin="round"/>
<path d="M190.92 119.23C190.87 122.11 190.83 124.98 190.78 127.85C189.82 126.08 189.69 124.1 190.41 122.15C189.81 120.89 189.95 120.17 190.92 119.23ZM127.78 168.49C127.81 169.25 127.85 170.02 127.89 170.78C127.83 171.84 127.78 172.91 127.73 173.97C127.47 174.15 127.21 174.32 126.95 174.49C126.64 174.4 126.34 174.3 126.03 174.2C126.18 173.74 126.33 173.29 126.48 172.83C126.48 172.22 126.48 171.61 126.48 171C126.79 170.24 127.09 169.48 127.4 168.72C127.52 168.65 127.65 168.57 127.78 168.49ZM117.02 185.86C116.92 186.92 116.83 187.98 116.73 189.04C116.56 190.41 116.38 191.78 116.21 193.15C115.68 190.69 115.51 187.65 116.44 185.16C116.63 185.39 116.82 185.62 117.02 185.86ZM383.09 187.21C384.94 187.95 384.02 194.1 384.02 196.12C384.02 203.43 383.82 209.96 378.22 215.44C375.93 217.69 368.76 219.1 367.81 221.51C367.6 221.33 367.4 221.15 367.19 220.97C367.25 220.31 367.3 219.65 367.35 218.99C367.89 218.79 368.43 218.58 368.98 218.38C372.03 217.73 374.55 216.89 376.82 214.67C377.09 214.46 377.36 214.24 377.63 214.03C379.04 212.12 380.46 210.22 381.88 208.31C382.02 207.8 382.17 207.29 382.31 206.78C384.49 202.59 383 192.18 383.09 187.21ZM116.73 202.74C116.91 203.97 117.1 205.19 117.28 206.42C117.58 207.32 117.87 208.23 118.17 209.13C121.55 214.78 125.67 217.14 131.88 218.75C132.15 218.97 132.42 219.19 132.69 219.41C132.78 219.94 132.86 220.47 132.95 221C132.97 222.01 133 223.01 133.02 224.02C132.82 224.46 132.62 224.9 132.42 225.34C130.66 216.54 128.02 220.53 122.28 216.35C115.93 211.72 114.76 202.71 116.21 195.43C116.38 197.87 116.56 200.3 116.73 202.74ZM366.28 224.2C366.99 224.46 367.2 226.52 367.04 227.54C366.37 231.69 365.96 235.7 365.57 239.95C365.35 240 365.13 240.04 364.91 240.08C364.97 238.59 365.04 237.11 365.1 235.62C365.32 233.33 365.55 231.05 365.77 228.77C365.94 227.25 366.11 225.72 366.28 224.2ZM133.66 226.94C133.81 228.61 133.96 230.29 134.11 231.96C133.93 232.57 133.75 233.18 133.56 233.79C133.33 231.58 133.11 229.38 132.88 227.17C133.14 227.09 133.4 227.02 133.66 226.94ZM364.3 241.99C364.48 242.07 364.66 242.16 364.84 242.24C364.84 243.91 364.84 245.59 364.84 247.26C364.61 247.79 364.38 248.33 364.16 248.86C364.03 248.51 363.91 248.16 363.79 247.81C363.96 245.87 364.13 243.93 364.3 241.99ZM135.23 243.35C135.54 245.49 135.86 247.63 136.17 249.77C136.4 251.42 136.63 253.07 136.86 254.72C136.88 255.35 136.89 255.99 136.9 256.62C136.63 256.85 136.35 257.08 136.07 257.31C135.6 254.92 134.22 244.79 135.23 243.35ZM265.32 273.97C266.47 277 266.48 282.34 265.32 285.39C265.32 281.58 265.32 277.78 265.32 273.97ZM360.22 276.26C361.44 277.98 360.28 287.17 359.59 289.5C359.4 289.19 359.2 288.89 359.01 288.58C359.42 284.47 359.82 280.37 360.22 276.26ZM358.66 290.87C360.78 292.02 357.14 302.52 357.99 304.34C357.69 304.72 357.39 305.1 357.09 305.48C357.61 300.61 358.14 295.74 358.66 290.87ZM142.48 305.48C142.67 307.46 142.86 309.44 143.05 311.42C142.93 311.57 142.81 311.72 142.69 311.87C142.47 311.64 142.24 311.42 142.01 311.19C142.01 309.36 142.01 307.53 142.01 305.71C142.17 305.63 142.32 305.56 142.48 305.48ZM355.13 321.15C355.51 317.45 355.9 313.75 356.28 310.05C356.54 310.12 356.81 310.2 357.08 310.27C356.54 315.07 356.01 319.86 355.48 324.66C355.36 323.49 355.25 322.32 355.13 321.15ZM354.7 325.46C354.43 330.9 354.15 336.34 353.88 341.78C353.53 341.83 353.19 341.88 352.84 341.94C352.93 339.98 353.03 338.03 353.12 336.07C353.35 334.4 353.59 332.72 353.82 331.05C354.12 329.19 354.41 327.32 354.7 325.46ZM145.58 331.05C145.78 332.72 145.98 334.4 146.18 336.07C146.42 337.95 146.65 339.83 146.89 341.71C147.26 344.55 147.63 347.39 148 350.23C148.02 350.68 148.04 351.14 148.05 351.6C148.36 355.23 148.68 358.86 148.99 362.49C147.84 362.9 147.34 356.7 147.12 355.39C146.8 353.49 147.35 351.47 147.02 349.56C146.02 343.82 145.14 338.04 144.75 332.19C145.03 331.81 145.31 331.43 145.58 331.05ZM352.44 343.81C352.31 348.31 352.18 352.81 352.05 357.31C351.75 356.93 351.45 356.54 351.15 356.16C351.17 354.97 351.2 353.78 351.22 352.59C351.63 349.66 352.03 346.74 352.44 343.81ZM149.61 365.3C150.5 370.31 149.7 376.19 152.03 380.82C152.3 381.74 152.58 382.65 152.86 383.57C152.91 383.98 152.96 384.39 153.01 384.8C150.1 384.18 149.32 372.91 149.32 370.09C149.32 368.72 148.4 365.91 149.61 365.3ZM349.78 366.67C350.08 367.05 350.38 367.43 350.68 367.81C348.55 373.55 350.65 382.24 345.66 387.44C345.47 387.36 345.28 387.28 345.09 387.19C345.32 386.61 345.56 386.03 345.79 385.45C346.22 384.21 346.65 382.98 347.09 381.75C348.79 378.78 348.91 374.59 349.15 371.23C349.36 369.71 349.57 368.19 349.78 366.67ZM343.38 389.93C343.45 390.39 343.53 390.86 343.61 391.32C342.68 392.08 342.49 393.04 341.77 394.05C339.94 396.6 336.87 398.62 334.25 400.23C333.94 400.01 333.64 399.79 333.33 399.58C335.79 397.44 338.25 395.3 340.71 393.16C341.02 392.75 341.33 392.34 341.65 391.93C342.22 391.26 342.8 390.6 343.38 389.93ZM157.19 391.78C162.24 395.3 164.03 399.39 170.75 401.95C173.2 402.7 175.64 403.45 178.08 404.2C177.7 404.47 177.32 404.75 176.94 405.02C169.59 404.02 161.19 399.2 157.08 392.92C157.12 392.54 157.15 392.16 157.19 391.78ZM331.4 400.88C331.36 401.2 331.32 401.51 331.28 401.83C327.83 403.99 323.41 405.02 319.41 405.02C319.63 404.77 319.86 404.52 320.09 404.27C323.33 403.92 328.25 403.08 330.59 400.68C330.86 400.75 331.13 400.82 331.4 400.88Z" fill="#ffffff" fill-rule="evenodd" stroke="#ffffff" stroke-width="0.25" stroke-linejoin="round"/>
</svg>